<svg xmlns="http://www.w3.org/2000/svg" xmlns:xlink="http://www.w3.org/1999/xlink" width="500" zoomAndPan="magnify" viewBox="0 0 375 82.499998" height="110" preserveAspectRatio="xMidYMid meet" version="1.0"><defs><g/></defs><g fill="#000000" fill-opacity="1"><g transform="translate(11.751374, 29.817879)"><g><path d="M 4.703125 -10.015625 L 4.671875 -9.78125 C 4.859375 -9.738281 5.0625 -9.695312 5.28125 -9.65625 C 5.457031 -9.613281 5.660156 -9.550781 5.890625 -9.46875 C 6.128906 -9.394531 6.359375 -9.296875 6.578125 -9.171875 L 14.9375 -5.046875 L 14.453125 -1.90625 L 2.171875 -8.234375 L 2.71875 -11.6875 L 17.03125 -18.015625 L 16.484375 -14.640625 L 6.828125 -10.5625 C 6.546875 -10.46875 6.273438 -10.378906 6.015625 -10.296875 C 5.765625 -10.210938 5.539062 -10.148438 5.34375 -10.109375 C 5.125 -10.066406 4.910156 -10.035156 4.703125 -10.015625 Z M 4.703125 -10.015625 "/></g></g></g><g fill="#000000" fill-opacity="1"><g transform="translate(31.364107, 29.817879)"><g><path d="M 2.71875 -18.75 L 3.203125 -21.734375 L 18.78125 -21.734375 L 18.328125 -18.75 L 12.203125 -18.75 L 9.234375 0 L 5.859375 0 L 8.84375 -18.75 Z M 2.71875 -18.75 "/></g></g></g><g fill="#000000" fill-opacity="1"><g transform="translate(50.976841, 29.817879)"><g><path d="M 0.96875 0 L 4.40625 -21.734375 L 7.734375 -21.734375 L 6.3125 -12.828125 L 12.765625 -12.828125 L 14.1875 -21.734375 L 17.515625 -21.734375 L 14.0625 0 L 10.75 0 L 12.28125 -9.78125 L 5.828125 -9.78125 L 4.28125 0 Z M 0.96875 0 "/></g></g></g><g fill="#000000" fill-opacity="1"><g transform="translate(70.589572, 29.817879)"><g><path d="M 4.671875 -21.734375 L 17.78125 -21.734375 L 17.328125 -18.84375 L 7.515625 -18.84375 L 6.515625 -12.65625 L 15.28125 -12.65625 L 14.828125 -9.6875 L 6.0625 -9.6875 L 4.984375 -2.921875 L 14.796875 -2.921875 L 14.34375 0 L 1.234375 0 Z M 4.671875 -21.734375 "/></g></g></g><g fill="#3882ff" fill-opacity="1"><g transform="translate(90.199854, 29.817879)"><g><path d="M 7.78125 -3.015625 C 8.957031 -3.015625 9.953125 -3.359375 10.765625 -4.046875 C 11.578125 -4.734375 12.070312 -5.648438 12.25 -6.796875 L 13.546875 -14.96875 C 13.710938 -16.09375 13.5 -17 12.90625 -17.6875 C 12.3125 -18.375 11.441406 -18.71875 10.296875 -18.71875 L 7.1875 -18.71875 L 4.671875 -3.015625 Z M 0.9375 0 L 4.375 -21.734375 L 10.78125 -21.734375 C 11.84375 -21.734375 12.785156 -21.570312 13.609375 -21.25 C 14.441406 -20.925781 15.125 -20.46875 15.65625 -19.875 C 16.1875 -19.28125 16.550781 -18.570312 16.75 -17.75 C 16.957031 -16.925781 16.976562 -16 16.8125 -14.96875 L 15.515625 -6.796875 C 15.359375 -5.765625 15.039062 -4.832031 14.5625 -4 C 14.09375 -3.164062 13.5 -2.453125 12.78125 -1.859375 C 12.070312 -1.265625 11.253906 -0.804688 10.328125 -0.484375 C 9.398438 -0.160156 8.398438 0 7.328125 0 Z M 0.9375 0 "/></g></g></g><g fill="#3882ff" fill-opacity="1"><g transform="translate(109.812588, 29.817879)"><g><path d="M 4.671875 -21.734375 L 17.78125 -21.734375 L 17.328125 -18.84375 L 7.515625 -18.84375 L 6.515625 -12.65625 L 15.28125 -12.65625 L 14.828125 -9.6875 L 6.0625 -9.6875 L 4.984375 -2.921875 L 14.796875 -2.921875 L 14.34375 0 L 1.234375 0 Z M 4.671875 -21.734375 "/></g></g></g><g fill="#3882ff" fill-opacity="1"><g transform="translate(129.425321, 29.817879)"><g><path d="M 2.953125 -21.734375 L 6.3125 -21.734375 L 7.671875 -5.21875 C 7.710938 -4.84375 7.738281 -4.484375 7.75 -4.140625 C 7.757812 -3.796875 7.765625 -3.484375 7.765625 -3.203125 C 7.765625 -2.878906 7.765625 -2.585938 7.765625 -2.328125 L 7.875 -2.328125 C 7.957031 -2.585938 8.050781 -2.878906 8.15625 -3.203125 C 8.25 -3.484375 8.351562 -3.796875 8.46875 -4.140625 C 8.582031 -4.484375 8.71875 -4.84375 8.875 -5.21875 L 15.578125 -21.734375 L 19.046875 -21.734375 L 9.75 0 L 5.1875 0 Z M 2.953125 -21.734375 "/></g></g></g><g fill="#3882ff" fill-opacity="1"><g transform="translate(149.038053, 29.817879)"><g><path d="M 4.671875 -21.734375 L 17.78125 -21.734375 L 17.328125 -18.84375 L 7.515625 -18.84375 L 6.515625 -12.65625 L 15.28125 -12.65625 L 14.828125 -9.6875 L 6.0625 -9.6875 L 4.984375 -2.921875 L 14.796875 -2.921875 L 14.34375 0 L 1.234375 0 Z M 4.671875 -21.734375 "/></g></g></g><g fill="#3882ff" fill-opacity="1"><g transform="translate(168.650787, 29.817879)"><g><path d="M 8.9375 -21.734375 L 5.984375 -3.046875 L 15.78125 -3.046875 L 15.3125 0 L 2.171875 0 L 5.609375 -21.734375 Z M 8.9375 -21.734375 "/></g></g></g><g fill="#3882ff" fill-opacity="1"><g transform="translate(188.263516, 29.817879)"><g><path d="M 4.890625 -6.28125 C 4.710938 -5.15625 4.898438 -4.265625 5.453125 -3.609375 C 6.003906 -2.953125 6.84375 -2.625 7.96875 -2.625 C 9.070312 -2.625 10.003906 -2.953125 10.765625 -3.609375 C 11.535156 -4.265625 12.015625 -5.15625 12.203125 -6.28125 L 13.640625 -15.484375 C 13.828125 -16.609375 13.640625 -17.5 13.078125 -18.15625 C 12.523438 -18.8125 11.6875 -19.140625 10.5625 -19.140625 C 9.457031 -19.140625 8.519531 -18.8125 7.75 -18.15625 C 6.988281 -17.5 6.53125 -16.609375 6.375 -15.484375 Z M 3.046875 -15.484375 C 3.367188 -17.515625 4.238281 -19.113281 5.65625 -20.28125 C 7.070312 -21.445312 8.867188 -22.03125 11.046875 -22.03125 C 12.097656 -22.03125 13.023438 -21.875 13.828125 -21.5625 C 14.628906 -21.25 15.285156 -20.804688 15.796875 -20.234375 C 16.316406 -19.660156 16.679688 -18.972656 16.890625 -18.171875 C 17.097656 -17.367188 17.125 -16.472656 16.96875 -15.484375 L 15.484375 -6.28125 C 15.328125 -5.269531 15.019531 -4.359375 14.5625 -3.546875 C 14.113281 -2.734375 13.539062 -2.039062 12.84375 -1.46875 C 12.144531 -0.894531 11.34375 -0.457031 10.4375 -0.15625 C 9.539062 0.144531 8.554688 0.296875 7.484375 0.296875 C 6.441406 0.296875 5.515625 0.140625 4.703125 -0.171875 C 3.898438 -0.484375 3.242188 -0.925781 2.734375 -1.5 C 2.222656 -2.070312 1.863281 -2.765625 1.65625 -3.578125 C 1.457031 -4.390625 1.425781 -5.289062 1.5625 -6.28125 Z M 3.046875 -15.484375 "/></g></g></g><g fill="#3882ff" fill-opacity="1"><g transform="translate(207.87625, 29.817879)"><g><path d="M 4.25 0 L 0.9375 0 L 4.375 -21.734375 L 11.796875 -21.734375 C 12.847656 -21.734375 13.773438 -21.578125 14.578125 -21.265625 C 15.378906 -20.953125 16.035156 -20.515625 16.546875 -19.953125 C 17.066406 -19.390625 17.429688 -18.703125 17.640625 -17.890625 C 17.859375 -17.085938 17.882812 -16.207031 17.71875 -15.25 C 17.5625 -14.257812 17.253906 -13.359375 16.796875 -12.546875 C 16.347656 -11.742188 15.78125 -11.0625 15.09375 -10.5 C 14.40625 -9.9375 13.609375 -9.503906 12.703125 -9.203125 C 11.796875 -8.898438 10.8125 -8.75 9.75 -8.75 L 5.640625 -8.75 Z M 10.203125 -11.625 C 11.285156 -11.625 12.195312 -11.953125 12.9375 -12.609375 C 13.6875 -13.273438 14.15625 -14.15625 14.34375 -15.25 C 14.5 -16.332031 14.3125 -17.207031 13.78125 -17.875 C 13.25 -18.539062 12.4375 -18.875 11.34375 -18.875 L 7.25 -18.875 L 6.09375 -11.625 Z M 10.203125 -11.625 "/></g></g></g><g fill="#3882ff" fill-opacity="1"><g transform="translate(227.488984, 29.817879)"><g><path d="M 4.671875 -21.734375 L 17.78125 -21.734375 L 17.328125 -18.84375 L 7.515625 -18.84375 L 6.515625 -12.65625 L 15.28125 -12.65625 L 14.828125 -9.6875 L 6.0625 -9.6875 L 4.984375 -2.921875 L 14.796875 -2.921875 L 14.34375 0 L 1.234375 0 Z M 4.671875 -21.734375 "/></g></g></g><g fill="#3882ff" fill-opacity="1"><g transform="translate(247.101718, 29.817879)"><g><path d="M 4.40625 -21.734375 L 11.4375 -21.734375 C 12.488281 -21.734375 13.414062 -21.578125 14.21875 -21.265625 C 15.019531 -20.953125 15.675781 -20.519531 16.1875 -19.96875 C 16.707031 -19.414062 17.070312 -18.738281 17.28125 -17.9375 C 17.488281 -17.144531 17.515625 -16.269531 17.359375 -15.3125 C 17.117188 -13.800781 16.550781 -12.519531 15.65625 -11.46875 C 14.757812 -10.425781 13.625 -9.691406 12.25 -9.265625 L 15.25 0 L 11.65625 0 L 8.96875 -8.84375 L 5.671875 -8.84375 L 4.25 0 L 0.96875 0 Z M 9.84375 -11.625 C 10.925781 -11.625 11.835938 -11.953125 12.578125 -12.609375 C 13.328125 -13.273438 13.796875 -14.15625 13.984375 -15.25 C 14.140625 -16.332031 13.953125 -17.207031 13.421875 -17.875 C 12.890625 -18.539062 12.078125 -18.875 10.984375 -18.875 L 7.25 -18.875 L 6.09375 -11.625 Z M 9.84375 -11.625 "/></g></g></g><g fill="#000000" fill-opacity="1"><g transform="translate(266.70311, 29.817879)"><g><path d="M 4.25 0 L 0.9375 0 L 4.375 -21.734375 L 11.796875 -21.734375 C 12.847656 -21.734375 13.773438 -21.578125 14.578125 -21.265625 C 15.378906 -20.953125 16.035156 -20.515625 16.546875 -19.953125 C 17.066406 -19.390625 17.429688 -18.703125 17.640625 -17.890625 C 17.859375 -17.085938 17.882812 -16.207031 17.71875 -15.25 C 17.5625 -14.257812 17.253906 -13.359375 16.796875 -12.546875 C 16.347656 -11.742188 15.78125 -11.0625 15.09375 -10.5 C 14.40625 -9.9375 13.609375 -9.503906 12.703125 -9.203125 C 11.796875 -8.898438 10.8125 -8.75 9.75 -8.75 L 5.640625 -8.75 Z M 10.203125 -11.625 C 11.285156 -11.625 12.195312 -11.953125 12.9375 -12.609375 C 13.6875 -13.273438 14.15625 -14.15625 14.34375 -15.25 C 14.5 -16.332031 14.3125 -17.207031 13.78125 -17.875 C 13.25 -18.539062 12.4375 -18.875 11.34375 -18.875 L 7.25 -18.875 L 6.09375 -11.625 Z M 10.203125 -11.625 "/></g></g></g><g fill="#000000" fill-opacity="1"><g transform="translate(286.315843, 29.817879)"><g><path d="M 4.890625 -6.28125 C 4.710938 -5.15625 4.898438 -4.265625 5.453125 -3.609375 C 6.003906 -2.953125 6.84375 -2.625 7.96875 -2.625 C 9.070312 -2.625 10.003906 -2.953125 10.765625 -3.609375 C 11.535156 -4.265625 12.015625 -5.15625 12.203125 -6.28125 L 13.640625 -15.484375 C 13.828125 -16.609375 13.640625 -17.5 13.078125 -18.15625 C 12.523438 -18.8125 11.6875 -19.140625 10.5625 -19.140625 C 9.457031 -19.140625 8.519531 -18.8125 7.75 -18.15625 C 6.988281 -17.5 6.53125 -16.609375 6.375 -15.484375 Z M 3.046875 -15.484375 C 3.367188 -17.515625 4.238281 -19.113281 5.65625 -20.28125 C 7.070312 -21.445312 8.867188 -22.03125 11.046875 -22.03125 C 12.097656 -22.03125 13.023438 -21.875 13.828125 -21.5625 C 14.628906 -21.25 15.285156 -20.804688 15.796875 -20.234375 C 16.316406 -19.660156 16.679688 -18.972656 16.890625 -18.171875 C 17.097656 -17.367188 17.125 -16.472656 16.96875 -15.484375 L 15.484375 -6.28125 C 15.328125 -5.269531 15.019531 -4.359375 14.5625 -3.546875 C 14.113281 -2.734375 13.539062 -2.039062 12.84375 -1.46875 C 12.144531 -0.894531 11.34375 -0.457031 10.4375 -0.15625 C 9.539062 0.144531 8.554688 0.296875 7.484375 0.296875 C 6.441406 0.296875 5.515625 0.140625 4.703125 -0.171875 C 3.898438 -0.484375 3.242188 -0.925781 2.734375 -1.5 C 2.222656 -2.070312 1.863281 -2.765625 1.65625 -3.578125 C 1.457031 -4.390625 1.425781 -5.289062 1.5625 -6.28125 Z M 3.046875 -15.484375 "/></g></g></g><g fill="#000000" fill-opacity="1"><g transform="translate(305.928577, 29.817879)"><g><path d="M 7.484375 0.296875 C 6.441406 0.296875 5.507812 0.148438 4.6875 -0.140625 C 3.875 -0.429688 3.195312 -0.835938 2.65625 -1.359375 C 2.113281 -1.878906 1.71875 -2.503906 1.46875 -3.234375 C 1.21875 -3.972656 1.148438 -4.785156 1.265625 -5.671875 L 4.671875 -5.671875 C 4.554688 -4.765625 4.804688 -4.03125 5.421875 -3.46875 C 6.035156 -2.90625 6.90625 -2.625 8.03125 -2.625 C 9.238281 -2.625 10.210938 -2.882812 10.953125 -3.40625 C 11.703125 -3.9375 12.15625 -4.660156 12.3125 -5.578125 C 12.4375 -6.410156 12.289062 -7.132812 11.875 -7.75 C 11.46875 -8.375 10.832031 -8.835938 9.96875 -9.140625 L 7.78125 -9.90625 C 6.15625 -10.425781 4.960938 -11.226562 4.203125 -12.3125 C 3.453125 -13.40625 3.1875 -14.675781 3.40625 -16.125 C 3.707031 -17.988281 4.53125 -19.4375 5.875 -20.46875 C 7.226562 -21.507812 8.984375 -22.03125 11.140625 -22.03125 C 12.128906 -22.03125 13.007812 -21.890625 13.78125 -21.609375 C 14.550781 -21.328125 15.191406 -20.929688 15.703125 -20.421875 C 16.222656 -19.910156 16.59375 -19.296875 16.8125 -18.578125 C 17.03125 -17.867188 17.09375 -17.070312 17 -16.1875 L 13.578125 -16.1875 C 13.703125 -17.070312 13.488281 -17.785156 12.9375 -18.328125 C 12.382812 -18.867188 11.613281 -19.140625 10.625 -19.140625 C 9.5625 -19.140625 8.691406 -18.882812 8.015625 -18.375 C 7.335938 -17.875 6.929688 -17.179688 6.796875 -16.296875 C 6.671875 -15.535156 6.800781 -14.878906 7.1875 -14.328125 C 7.570312 -13.773438 8.207031 -13.347656 9.09375 -13.046875 L 11.375 -12.28125 C 13.007812 -11.757812 14.191406 -10.9375 14.921875 -9.8125 C 15.660156 -8.6875 15.898438 -7.335938 15.640625 -5.765625 C 15.492188 -4.816406 15.195312 -3.96875 14.75 -3.21875 C 14.3125 -2.476562 13.738281 -1.847656 13.03125 -1.328125 C 12.332031 -0.804688 11.515625 -0.40625 10.578125 -0.125 C 9.640625 0.15625 8.609375 0.296875 7.484375 0.296875 Z M 7.484375 0.296875 "/></g></g></g><g fill="#000000" fill-opacity="1"><g transform="translate(325.541308, 29.817879)"><g><path d="M 2.71875 -18.75 L 3.203125 -21.734375 L 18.78125 -21.734375 L 18.328125 -18.75 L 12.203125 -18.75 L 9.234375 0 L 5.859375 0 L 8.84375 -18.75 Z M 2.71875 -18.75 "/></g></g></g><g fill="#000000" fill-opacity="1"><g transform="translate(345.154043, 29.817879)"><g><path d="M 16.03125 -11.6875 L 15.453125 -8.234375 L 1.171875 -1.90625 L 1.75 -5.25 L 11.375 -9.359375 C 11.65625 -9.484375 11.921875 -9.582031 12.171875 -9.65625 C 12.429688 -9.738281 12.660156 -9.800781 12.859375 -9.84375 C 13.078125 -9.90625 13.289062 -9.945312 13.5 -9.96875 L 13.53125 -10.203125 C 13.34375 -10.222656 13.140625 -10.265625 12.921875 -10.328125 C 12.535156 -10.390625 12.101562 -10.539062 11.625 -10.78125 L 3.203125 -15 L 3.75 -18.015625 Z M 16.03125 -11.6875 "/></g></g></g><g fill="#000000" fill-opacity="1"><g transform="translate(1.942402, 74.552385)"><g><path d="M 4.703125 -10.015625 L 4.671875 -9.78125 C 4.859375 -9.738281 5.0625 -9.695312 5.28125 -9.65625 C 5.457031 -9.613281 5.660156 -9.550781 5.890625 -9.46875 C 6.128906 -9.394531 6.359375 -9.296875 6.578125 -9.171875 L 14.9375 -5.046875 L 14.453125 -1.90625 L 2.171875 -8.234375 L 2.71875 -11.6875 L 17.03125 -18.015625 L 16.484375 -14.640625 L 6.828125 -10.5625 C 6.546875 -10.46875 6.273438 -10.378906 6.015625 -10.296875 C 5.765625 -10.210938 5.539062 -10.148438 5.34375 -10.109375 C 5.125 -10.066406 4.910156 -10.035156 4.703125 -10.015625 Z M 4.703125 -10.015625 "/></g></g></g><g fill="#000000" fill-opacity="1"><g transform="translate(21.555135, 74.552385)"><g><path d="M 14.765625 -25.0625 L 18.265625 -25.0625 L 3.234375 3.328125 L -0.296875 3.328125 Z M 14.765625 -25.0625 "/></g></g></g><g fill="#000000" fill-opacity="1"><g transform="translate(41.167868, 74.552385)"><g><path d="M 2.71875 -18.75 L 3.203125 -21.734375 L 18.78125 -21.734375 L 18.328125 -18.75 L 12.203125 -18.75 L 9.234375 0 L 5.859375 0 L 8.84375 -18.75 Z M 2.71875 -18.75 "/></g></g></g><g fill="#000000" fill-opacity="1"><g transform="translate(60.7806, 74.552385)"><g><path d="M 0.96875 0 L 4.40625 -21.734375 L 7.734375 -21.734375 L 6.3125 -12.828125 L 12.765625 -12.828125 L 14.1875 -21.734375 L 17.515625 -21.734375 L 14.0625 0 L 10.75 0 L 12.28125 -9.78125 L 5.828125 -9.78125 L 4.28125 0 Z M 0.96875 0 "/></g></g></g><g fill="#000000" fill-opacity="1"><g transform="translate(80.393334, 74.552385)"><g><path d="M 4.671875 -21.734375 L 17.78125 -21.734375 L 17.328125 -18.84375 L 7.515625 -18.84375 L 6.515625 -12.65625 L 15.28125 -12.65625 L 14.828125 -9.6875 L 6.0625 -9.6875 L 4.984375 -2.921875 L 14.796875 -2.921875 L 14.34375 0 L 1.234375 0 Z M 4.671875 -21.734375 "/></g></g></g><g fill="#3882ff" fill-opacity="1"><g transform="translate(99.997177, 74.552385)"><g><path d="M 7.78125 -3.015625 C 8.957031 -3.015625 9.953125 -3.359375 10.765625 -4.046875 C 11.578125 -4.734375 12.070312 -5.648438 12.25 -6.796875 L 13.546875 -14.96875 C 13.710938 -16.09375 13.5 -17 12.90625 -17.6875 C 12.3125 -18.375 11.441406 -18.71875 10.296875 -18.71875 L 7.1875 -18.71875 L 4.671875 -3.015625 Z M 0.9375 0 L 4.375 -21.734375 L 10.78125 -21.734375 C 11.84375 -21.734375 12.785156 -21.570312 13.609375 -21.25 C 14.441406 -20.925781 15.125 -20.46875 15.65625 -19.875 C 16.1875 -19.28125 16.550781 -18.570312 16.75 -17.75 C 16.957031 -16.925781 16.976562 -16 16.8125 -14.96875 L 15.515625 -6.796875 C 15.359375 -5.765625 15.039062 -4.832031 14.5625 -4 C 14.09375 -3.164062 13.5 -2.453125 12.78125 -1.859375 C 12.070312 -1.265625 11.253906 -0.804688 10.328125 -0.484375 C 9.398438 -0.160156 8.398438 0 7.328125 0 Z M 0.9375 0 "/></g></g></g><g fill="#3882ff" fill-opacity="1"><g transform="translate(119.60991, 74.552385)"><g><path d="M 4.671875 -21.734375 L 17.78125 -21.734375 L 17.328125 -18.84375 L 7.515625 -18.84375 L 6.515625 -12.65625 L 15.28125 -12.65625 L 14.828125 -9.6875 L 6.0625 -9.6875 L 4.984375 -2.921875 L 14.796875 -2.921875 L 14.34375 0 L 1.234375 0 Z M 4.671875 -21.734375 "/></g></g></g><g fill="#3882ff" fill-opacity="1"><g transform="translate(139.222644, 74.552385)"><g><path d="M 2.953125 -21.734375 L 6.3125 -21.734375 L 7.671875 -5.21875 C 7.710938 -4.84375 7.738281 -4.484375 7.75 -4.140625 C 7.757812 -3.796875 7.765625 -3.484375 7.765625 -3.203125 C 7.765625 -2.878906 7.765625 -2.585938 7.765625 -2.328125 L 7.875 -2.328125 C 7.957031 -2.585938 8.050781 -2.878906 8.15625 -3.203125 C 8.25 -3.484375 8.351562 -3.796875 8.46875 -4.140625 C 8.582031 -4.484375 8.71875 -4.84375 8.875 -5.21875 L 15.578125 -21.734375 L 19.046875 -21.734375 L 9.75 0 L 5.1875 0 Z M 2.953125 -21.734375 "/></g></g></g><g fill="#3882ff" fill-opacity="1"><g transform="translate(158.835376, 74.552385)"><g><path d="M 4.671875 -21.734375 L 17.78125 -21.734375 L 17.328125 -18.84375 L 7.515625 -18.84375 L 6.515625 -12.65625 L 15.28125 -12.65625 L 14.828125 -9.6875 L 6.0625 -9.6875 L 4.984375 -2.921875 L 14.796875 -2.921875 L 14.34375 0 L 1.234375 0 Z M 4.671875 -21.734375 "/></g></g></g><g fill="#3882ff" fill-opacity="1"><g transform="translate(178.44811, 74.552385)"><g><path d="M 8.9375 -21.734375 L 5.984375 -3.046875 L 15.78125 -3.046875 L 15.3125 0 L 2.171875 0 L 5.609375 -21.734375 Z M 8.9375 -21.734375 "/></g></g></g><g fill="#3882ff" fill-opacity="1"><g transform="translate(198.060838, 74.552385)"><g><path d="M 4.890625 -6.28125 C 4.710938 -5.15625 4.898438 -4.265625 5.453125 -3.609375 C 6.003906 -2.953125 6.84375 -2.625 7.96875 -2.625 C 9.070312 -2.625 10.003906 -2.953125 10.765625 -3.609375 C 11.535156 -4.265625 12.015625 -5.15625 12.203125 -6.28125 L 13.640625 -15.484375 C 13.828125 -16.609375 13.640625 -17.5 13.078125 -18.15625 C 12.523438 -18.8125 11.6875 -19.140625 10.5625 -19.140625 C 9.457031 -19.140625 8.519531 -18.8125 7.75 -18.15625 C 6.988281 -17.5 6.53125 -16.609375 6.375 -15.484375 Z M 3.046875 -15.484375 C 3.367188 -17.515625 4.238281 -19.113281 5.65625 -20.28125 C 7.070312 -21.445312 8.867188 -22.03125 11.046875 -22.03125 C 12.097656 -22.03125 13.023438 -21.875 13.828125 -21.5625 C 14.628906 -21.25 15.285156 -20.804688 15.796875 -20.234375 C 16.316406 -19.660156 16.679688 -18.972656 16.890625 -18.171875 C 17.097656 -17.367188 17.125 -16.472656 16.96875 -15.484375 L 15.484375 -6.28125 C 15.328125 -5.269531 15.019531 -4.359375 14.5625 -3.546875 C 14.113281 -2.734375 13.539062 -2.039062 12.84375 -1.46875 C 12.144531 -0.894531 11.34375 -0.457031 10.4375 -0.15625 C 9.539062 0.144531 8.554688 0.296875 7.484375 0.296875 C 6.441406 0.296875 5.515625 0.140625 4.703125 -0.171875 C 3.898438 -0.484375 3.242188 -0.925781 2.734375 -1.5 C 2.222656 -2.070312 1.863281 -2.765625 1.65625 -3.578125 C 1.457031 -4.390625 1.425781 -5.289062 1.5625 -6.28125 Z M 3.046875 -15.484375 "/></g></g></g><g fill="#3882ff" fill-opacity="1"><g transform="translate(217.673572, 74.552385)"><g><path d="M 4.25 0 L 0.9375 0 L 4.375 -21.734375 L 11.796875 -21.734375 C 12.847656 -21.734375 13.773438 -21.578125 14.578125 -21.265625 C 15.378906 -20.953125 16.035156 -20.515625 16.546875 -19.953125 C 17.066406 -19.390625 17.429688 -18.703125 17.640625 -17.890625 C 17.859375 -17.085938 17.882812 -16.207031 17.71875 -15.25 C 17.5625 -14.257812 17.253906 -13.359375 16.796875 -12.546875 C 16.347656 -11.742188 15.78125 -11.0625 15.09375 -10.5 C 14.40625 -9.9375 13.609375 -9.503906 12.703125 -9.203125 C 11.796875 -8.898438 10.8125 -8.75 9.75 -8.75 L 5.640625 -8.75 Z M 10.203125 -11.625 C 11.285156 -11.625 12.195312 -11.953125 12.9375 -12.609375 C 13.6875 -13.273438 14.15625 -14.15625 14.34375 -15.25 C 14.5 -16.332031 14.3125 -17.207031 13.78125 -17.875 C 13.25 -18.539062 12.4375 -18.875 11.34375 -18.875 L 7.25 -18.875 L 6.09375 -11.625 Z M 10.203125 -11.625 "/></g></g></g><g fill="#3882ff" fill-opacity="1"><g transform="translate(237.286306, 74.552385)"><g><path d="M 4.671875 -21.734375 L 17.78125 -21.734375 L 17.328125 -18.84375 L 7.515625 -18.84375 L 6.515625 -12.65625 L 15.28125 -12.65625 L 14.828125 -9.6875 L 6.0625 -9.6875 L 4.984375 -2.921875 L 14.796875 -2.921875 L 14.34375 0 L 1.234375 0 Z M 4.671875 -21.734375 "/></g></g></g><g fill="#3882ff" fill-opacity="1"><g transform="translate(256.899041, 74.552385)"><g><path d="M 4.40625 -21.734375 L 11.4375 -21.734375 C 12.488281 -21.734375 13.414062 -21.578125 14.21875 -21.265625 C 15.019531 -20.953125 15.675781 -20.519531 16.1875 -19.96875 C 16.707031 -19.414062 17.070312 -18.738281 17.28125 -17.9375 C 17.488281 -17.144531 17.515625 -16.269531 17.359375 -15.3125 C 17.117188 -13.800781 16.550781 -12.519531 15.65625 -11.46875 C 14.757812 -10.425781 13.625 -9.691406 12.25 -9.265625 L 15.25 0 L 11.65625 0 L 8.96875 -8.84375 L 5.671875 -8.84375 L 4.25 0 L 0.96875 0 Z M 9.84375 -11.625 C 10.925781 -11.625 11.835938 -11.953125 12.578125 -12.609375 C 13.328125 -13.273438 13.796875 -14.15625 13.984375 -15.25 C 14.140625 -16.332031 13.953125 -17.207031 13.421875 -17.875 C 12.890625 -18.539062 12.078125 -18.875 10.984375 -18.875 L 7.25 -18.875 L 6.09375 -11.625 Z M 9.84375 -11.625 "/></g></g></g><g fill="#000000" fill-opacity="1"><g transform="translate(276.500437, 74.552385)"><g><path d="M 4.25 0 L 0.9375 0 L 4.375 -21.734375 L 11.796875 -21.734375 C 12.847656 -21.734375 13.773438 -21.578125 14.578125 -21.265625 C 15.378906 -20.953125 16.035156 -20.515625 16.546875 -19.953125 C 17.066406 -19.390625 17.429688 -18.703125 17.640625 -17.890625 C 17.859375 -17.085938 17.882812 -16.207031 17.71875 -15.25 C 17.5625 -14.257812 17.253906 -13.359375 16.796875 -12.546875 C 16.347656 -11.742188 15.78125 -11.0625 15.09375 -10.5 C 14.40625 -9.9375 13.609375 -9.503906 12.703125 -9.203125 C 11.796875 -8.898438 10.8125 -8.75 9.75 -8.75 L 5.640625 -8.75 Z M 10.203125 -11.625 C 11.285156 -11.625 12.195312 -11.953125 12.9375 -12.609375 C 13.6875 -13.273438 14.15625 -14.15625 14.34375 -15.25 C 14.5 -16.332031 14.3125 -17.207031 13.78125 -17.875 C 13.25 -18.539062 12.4375 -18.875 11.34375 -18.875 L 7.25 -18.875 L 6.09375 -11.625 Z M 10.203125 -11.625 "/></g></g></g><g fill="#000000" fill-opacity="1"><g transform="translate(296.11317, 74.552385)"><g><path d="M 4.890625 -6.28125 C 4.710938 -5.15625 4.898438 -4.265625 5.453125 -3.609375 C 6.003906 -2.953125 6.84375 -2.625 7.96875 -2.625 C 9.070312 -2.625 10.003906 -2.953125 10.765625 -3.609375 C 11.535156 -4.265625 12.015625 -5.15625 12.203125 -6.28125 L 13.640625 -15.484375 C 13.828125 -16.609375 13.640625 -17.5 13.078125 -18.15625 C 12.523438 -18.8125 11.6875 -19.140625 10.5625 -19.140625 C 9.457031 -19.140625 8.519531 -18.8125 7.75 -18.15625 C 6.988281 -17.5 6.53125 -16.609375 6.375 -15.484375 Z M 3.046875 -15.484375 C 3.367188 -17.515625 4.238281 -19.113281 5.65625 -20.28125 C 7.070312 -21.445312 8.867188 -22.03125 11.046875 -22.03125 C 12.097656 -22.03125 13.023438 -21.875 13.828125 -21.5625 C 14.628906 -21.25 15.285156 -20.804688 15.796875 -20.234375 C 16.316406 -19.660156 16.679688 -18.972656 16.890625 -18.171875 C 17.097656 -17.367188 17.125 -16.472656 16.96875 -15.484375 L 15.484375 -6.28125 C 15.328125 -5.269531 15.019531 -4.359375 14.5625 -3.546875 C 14.113281 -2.734375 13.539062 -2.039062 12.84375 -1.46875 C 12.144531 -0.894531 11.34375 -0.457031 10.4375 -0.15625 C 9.539062 0.144531 8.554688 0.296875 7.484375 0.296875 C 6.441406 0.296875 5.515625 0.140625 4.703125 -0.171875 C 3.898438 -0.484375 3.242188 -0.925781 2.734375 -1.5 C 2.222656 -2.070312 1.863281 -2.765625 1.65625 -3.578125 C 1.457031 -4.390625 1.425781 -5.289062 1.5625 -6.28125 Z M 3.046875 -15.484375 "/></g></g></g><g fill="#000000" fill-opacity="1"><g transform="translate(315.725903, 74.552385)"><g><path d="M 7.484375 0.296875 C 6.441406 0.296875 5.507812 0.148438 4.6875 -0.140625 C 3.875 -0.429688 3.195312 -0.835938 2.65625 -1.359375 C 2.113281 -1.878906 1.71875 -2.503906 1.46875 -3.234375 C 1.21875 -3.972656 1.148438 -4.785156 1.265625 -5.671875 L 4.671875 -5.671875 C 4.554688 -4.765625 4.804688 -4.03125 5.421875 -3.46875 C 6.035156 -2.90625 6.90625 -2.625 8.03125 -2.625 C 9.238281 -2.625 10.210938 -2.882812 10.953125 -3.40625 C 11.703125 -3.9375 12.15625 -4.660156 12.3125 -5.578125 C 12.4375 -6.410156 12.289062 -7.132812 11.875 -7.75 C 11.46875 -8.375 10.832031 -8.835938 9.96875 -9.140625 L 7.78125 -9.90625 C 6.15625 -10.425781 4.960938 -11.226562 4.203125 -12.3125 C 3.453125 -13.40625 3.1875 -14.675781 3.40625 -16.125 C 3.707031 -17.988281 4.53125 -19.4375 5.875 -20.46875 C 7.226562 -21.507812 8.984375 -22.03125 11.140625 -22.03125 C 12.128906 -22.03125 13.007812 -21.890625 13.78125 -21.609375 C 14.550781 -21.328125 15.191406 -20.929688 15.703125 -20.421875 C 16.222656 -19.910156 16.59375 -19.296875 16.8125 -18.578125 C 17.03125 -17.867188 17.09375 -17.070312 17 -16.1875 L 13.578125 -16.1875 C 13.703125 -17.070312 13.488281 -17.785156 12.9375 -18.328125 C 12.382812 -18.867188 11.613281 -19.140625 10.625 -19.140625 C 9.5625 -19.140625 8.691406 -18.882812 8.015625 -18.375 C 7.335938 -17.875 6.929688 -17.179688 6.796875 -16.296875 C 6.671875 -15.535156 6.800781 -14.878906 7.1875 -14.328125 C 7.570312 -13.773438 8.207031 -13.347656 9.09375 -13.046875 L 11.375 -12.28125 C 13.007812 -11.757812 14.191406 -10.9375 14.921875 -9.8125 C 15.660156 -8.6875 15.898438 -7.335938 15.640625 -5.765625 C 15.492188 -4.816406 15.195312 -3.96875 14.75 -3.21875 C 14.3125 -2.476562 13.738281 -1.847656 13.03125 -1.328125 C 12.332031 -0.804688 11.515625 -0.40625 10.578125 -0.125 C 9.640625 0.15625 8.609375 0.296875 7.484375 0.296875 Z M 7.484375 0.296875 "/></g></g></g><g fill="#000000" fill-opacity="1"><g transform="translate(335.338635, 74.552385)"><g><path d="M 2.71875 -18.75 L 3.203125 -21.734375 L 18.78125 -21.734375 L 18.328125 -18.75 L 12.203125 -18.75 L 9.234375 0 L 5.859375 0 L 8.84375 -18.75 Z M 2.71875 -18.75 "/></g></g></g><g fill="#000000" fill-opacity="1"><g transform="translate(354.951369, 74.552385)"><g><path d="M 16.03125 -11.6875 L 15.453125 -8.234375 L 1.171875 -1.90625 L 1.75 -5.25 L 11.375 -9.359375 C 11.65625 -9.484375 11.921875 -9.582031 12.171875 -9.65625 C 12.429688 -9.738281 12.660156 -9.800781 12.859375 -9.84375 C 13.078125 -9.90625 13.289062 -9.945312 13.5 -9.96875 L 13.53125 -10.203125 C 13.34375 -10.222656 13.140625 -10.265625 12.921875 -10.328125 C 12.535156 -10.390625 12.101562 -10.539062 11.625 -10.78125 L 3.203125 -15 L 3.75 -18.015625 Z M 16.03125 -11.6875 "/></g></g></g></svg>